#Comment line ignore any data following # character 
#Hierarchical Translation and Rotation (.htr) file 
[Header]	
#Header keywords are followed by a single value 
FileType HTR		#Single word string
DataType HTRS		#Translation followed by rotation and scale data
FileVersion 1		#integer
NumSegments 84		#integer
NumFrames 2		#integer
DataFrameRate 30		#integer, data frame rate in this file
EulerRotationOrder ZYX
CalibrationUnits mm
RotationUnits Degrees
GlobalAxisofGravity Y
BoneLengthAxis Y
ScaleFactor 1.00
[SegmentNames&Hierarchy]
#CHILD	PARENT
MASTER GLOBAL
root MASTER
chest root
L_mid_tent01 root
R_mid_tent01 root
spine01 root
Bip01_Neck chest
L_humerus chest
R_humerus chest
weapon_bone chest
Bip01_Head Bip01_Neck
eye_left_bone Bip01_Head
eye_right_bone Bip01_Head
L_forearm L_humerus
L_front_hand L_forearm
L_weapon_bone L_forearm
L_front_hand01_01 L_front_hand
L_front_hand02_01 L_front_hand
L_front_hand03_01 L_front_hand
L_front_hand01_02 L_front_hand01_01
L_front_hand02_02 L_front_hand02_01
L_front_hand03_02 L_front_hand03_01
R_forearm R_humerus
R_front_hand R_forearm
R_weapon_bone R_forearm
R_front_hand01_01 R_front_hand
R_front_hand02_01 R_front_hand
R_front_hand03_01 R_front_hand
R_front_hand01_02 R_front_hand01_01
R_front_hand02_02 R_front_hand02_01
R_front_hand03_02 R_front_hand03_01
null_rope01_connect L_mid_tent01
Rope1_Seg01 null_rope01_connect
Rope1_Seg02 Rope1_Seg01
Rope1_Seg03 Rope1_Seg02
Rope1_Seg04 Rope1_Seg03
Rope1_Seg05 Rope1_Seg04
Rope1_Seg06 Rope1_Seg05
Rope1_Seg07 Rope1_Seg06
Rope1_Seg09 Rope1_Seg07
L_mid_hand01 Rope1_Seg09
L_mid_hand02 Rope1_Seg09
L_mid_hand03 Rope1_Seg09
null_rope02_connect R_mid_tent01
Rope2_Seg01 null_rope02_connect
Rope2_Seg02 Rope2_Seg01
Rope2_Seg03 Rope2_Seg02
Rope2_Seg04 Rope2_Seg03
Rope2_Seg05 Rope2_Seg04
Rope2_Seg06 Rope2_Seg05
Rope2_Seg07 Rope2_Seg06
Rope2_Seg09 Rope2_Seg07
R_mid_hand01 Rope2_Seg09
R_mid_hand02 Rope2_Seg09
R_mid_hand03 Rope2_Seg09
spine02 spine01
spine03 spine02
pelvis spine03
null_rope03_connect pelvis
null_rope04_connect pelvis
Rope3_Seg01 null_rope03_connect
Rope3_Seg02 Rope3_Seg01
Rope3_Seg03 Rope3_Seg02
Rope3_Seg04 Rope3_Seg03
Rope3_Seg05 Rope3_Seg04
Rope3_Seg06 Rope3_Seg05
Rope3_Seg07 Rope3_Seg06
Rope3_Seg08 Rope3_Seg07
Rope3_Seg09 Rope3_Seg08
R_rear_hand01 Rope3_Seg09
R_rear_hand02 Rope3_Seg09
R_rear_hand03 Rope3_Seg09
Rope4_Seg01 null_rope04_connect
Rope4_Seg02 Rope4_Seg01
Rope4_Seg03 Rope4_Seg02
Rope4_Seg04 Rope4_Seg03
Rope4_Seg05 Rope4_Seg04
Rope4_Seg06 Rope4_Seg05
Rope4_Seg07 Rope4_Seg06
Rope4_Seg08 Rope4_Seg07
Rope4_Seg09 Rope4_Seg08
L_rear_hand01 Rope4_Seg09
L_rear_hand02 Rope4_Seg09
L_rear_hand03 Rope4_Seg09
[BasePosition]
#SegmentName Tx, Ty, Tz, Rx, Ry, Rz, BoneLength
MASTER 0.000000 0.000000 0.000000 -90.000000 0.000000 0.000000 10.000000 
root 0.000000 0.000000 0.000000 0.000000 0.000000 0.000000 10.000000 
chest 0.000000 0.000000 0.000000 0.000000 0.000000 0.000000 10.000000 
L_mid_tent01 0.000000 0.000000 0.000000 0.000000 0.000000 0.000000 10.000000 
R_mid_tent01 0.000000 0.000000 0.000000 0.000000 0.000000 0.000000 10.000000 
spine01 0.000000 0.000000 0.000000 0.000000 0.000000 0.000000 10.000000 
Bip01_Neck 0.000000 0.000000 0.000000 0.000000 0.000000 0.000000 10.000000 
L_humerus 0.000000 0.000000 0.000000 0.000000 0.000000 0.000000 10.000000 
R_humerus 0.000000 0.000000 0.000000 0.000000 0.000000 0.000000 10.000000 
weapon_bone 0.000000 0.000000 0.000000 0.000000 0.000000 0.000000 10.000000 
Bip01_Head 0.000000 0.000000 0.000000 0.000000 0.000000 0.000000 10.000000 
eye_left_bone 0.000000 0.000000 0.000000 0.000000 0.000000 0.000000 10.000000 
eye_right_bone 0.000000 0.000000 0.000000 0.000000 0.000000 0.000000 10.000000 
L_forearm 0.000000 0.000000 0.000000 0.000000 0.000000 0.000000 10.000000 
L_front_hand 0.000000 0.000000 0.000000 0.000000 0.000000 0.000000 10.000000 
L_weapon_bone 0.000000 0.000000 0.000000 0.000000 0.000000 0.000000 10.000000 
L_front_hand01_01 0.000000 0.000000 0.000000 0.000000 0.000000 0.000000 10.000000 
L_front_hand02_01 0.000000 0.000000 0.000000 0.000000 0.000000 0.000000 10.000000 
L_front_hand03_01 0.000000 0.000000 0.000000 0.000000 0.000000 0.000000 10.000000 
L_front_hand01_02 0.000000 0.000000 0.000000 0.000000 0.000000 0.000000 10.000000 
L_front_hand02_02 0.000000 0.000000 0.000000 0.000000 0.000000 0.000000 10.000000 
L_front_hand03_02 0.000000 0.000000 0.000000 0.000000 0.000000 0.000000 10.000000 
R_forearm 0.000000 0.000000 0.000000 0.000000 0.000000 0.000000 10.000000 
R_front_hand 0.000000 0.000000 0.000000 0.000000 0.000000 0.000000 10.000000 
R_weapon_bone 0.000000 0.000000 0.000000 0.000000 0.000000 0.000000 10.000000 
R_front_hand01_01 0.000000 0.000000 0.000000 0.000000 0.000000 0.000000 10.000000 
R_front_hand02_01 0.000000 0.000000 0.000000 0.000000 0.000000 0.000000 10.000000 
R_front_hand03_01 0.000000 0.000000 0.000000 0.000000 0.000000 0.000000 10.000000 
R_front_hand01_02 0.000000 0.000000 0.000000 0.000000 0.000000 0.000000 10.000000 
R_front_hand02_02 0.000000 0.000000 0.000000 0.000000 0.000000 0.000000 10.000000 
R_front_hand03_02 0.000000 0.000000 0.000000 0.000000 0.000000 0.000000 10.000000 
null_rope01_connect 0.000000 0.000000 0.000000 0.000000 0.000000 0.000000 10.000000 
Rope1_Seg01 0.000000 0.000000 0.000000 0.000000 0.000000 0.000000 10.000000 
Rope1_Seg02 0.000000 0.000000 0.000000 0.000000 0.000000 0.000000 10.000000 
Rope1_Seg03 0.000000 0.000000 0.000000 0.000000 0.000000 0.000000 10.000000 
Rope1_Seg04 0.000000 0.000000 0.000000 0.000000 0.000000 0.000000 10.000000 
Rope1_Seg05 0.000000 0.000000 0.000000 0.000000 0.000000 0.000000 10.000000 
Rope1_Seg06 0.000000 0.000000 0.000000 0.000000 0.000000 0.000000 10.000000 
Rope1_Seg07 0.000000 0.000000 0.000000 0.000000 0.000000 0.000000 10.000000 
Rope1_Seg09 0.000000 0.000000 0.000000 0.000000 0.000000 0.000000 10.000000 
L_mid_hand01 0.000000 0.000000 0.000000 0.000000 0.000000 0.000000 10.000000 
L_mid_hand02 0.000000 0.000000 0.000000 0.000000 0.000000 0.000000 10.000000 
L_mid_hand03 0.000000 0.000000 0.000000 0.000000 0.000000 0.000000 10.000000 
null_rope02_connect 0.000000 0.000000 0.000000 0.000000 0.000000 0.000000 10.000000 
Rope2_Seg01 0.000000 0.000000 0.000000 0.000000 0.000000 0.000000 10.000000 
Rope2_Seg02 0.000000 0.000000 0.000000 0.000000 0.000000 0.000000 10.000000 
Rope2_Seg03 0.000000 0.000000 0.000000 0.000000 0.000000 0.000000 10.000000 
Rope2_Seg04 0.000000 0.000000 0.000000 0.000000 0.000000 0.000000 10.000000 
Rope2_Seg05 0.000000 0.000000 0.000000 0.000000 0.000000 0.000000 10.000000 
Rope2_Seg06 0.000000 0.000000 0.000000 0.000000 0.000000 0.000000 10.000000 
Rope2_Seg07 0.000000 0.000000 0.000000 0.000000 0.000000 0.000000 10.000000 
Rope2_Seg09 0.000000 0.000000 0.000000 0.000000 0.000000 0.000000 10.000000 
R_mid_hand01 0.000000 0.000000 0.000000 0.000000 0.000000 0.000000 10.000000 
R_mid_hand02 0.000000 0.000000 0.000000 0.000000 0.000000 0.000000 10.000000 
R_mid_hand03 0.000000 0.000000 0.000000 0.000000 0.000000 0.000000 10.000000 
spine02 0.000000 0.000000 0.000000 0.000000 0.000000 0.000000 10.000000 
spine03 0.000000 0.000000 0.000000 0.000000 0.000000 0.000000 10.000000 
pelvis 0.000000 0.000000 0.000000 0.000000 0.000000 0.000000 10.000000 
null_rope03_connect 0.000000 0.000000 0.000000 0.000000 0.000000 0.000000 10.000000 
null_rope04_connect 0.000000 0.000000 0.000000 0.000000 0.000000 0.000000 10.000000 
Rope3_Seg01 0.000000 0.000000 0.000000 0.000000 0.000000 0.000000 10.000000 
Rope3_Seg02 0.000000 0.000000 0.000000 0.000000 0.000000 0.000000 10.000000 
Rope3_Seg03 0.000000 0.000000 0.000000 0.000000 0.000000 0.000000 10.000000 
Rope3_Seg04 0.000000 0.000000 0.000000 0.000000 0.000000 0.000000 10.000000 
Rope3_Seg05 0.000000 0.000000 0.000000 0.000000 0.000000 0.000000 10.000000 
Rope3_Seg06 0.000000 0.000000 0.000000 0.000000 0.000000 0.000000 10.000000 
Rope3_Seg07 0.000000 0.000000 0.000000 0.000000 0.000000 0.000000 10.000000 
Rope3_Seg08 0.000000 0.000000 0.000000 0.000000 0.000000 0.000000 10.000000 
Rope3_Seg09 0.000000 0.000000 0.000000 0.000000 0.000000 0.000000 10.000000 
R_rear_hand01 0.000000 0.000000 0.000000 0.000000 0.000000 0.000000 10.000000 
R_rear_hand02 0.000000 0.000000 0.000000 0.000000 0.000000 0.000000 10.000000 
R_rear_hand03 0.000000 0.000000 0.000000 0.000000 0.000000 0.000000 10.000000 
Rope4_Seg01 0.000000 0.000000 0.000000 0.000000 0.000000 0.000000 10.000000 
Rope4_Seg02 0.000000 0.000000 0.000000 0.000000 0.000000 0.000000 10.000000 
Rope4_Seg03 0.000000 0.000000 0.000000 0.000000 0.000000 0.000000 10.000000 
Rope4_Seg04 0.000000 0.000000 0.000000 0.000000 0.000000 0.000000 10.000000 
Rope4_Seg05 0.000000 0.000000 0.000000 0.000000 0.000000 0.000000 10.000000 
Rope4_Seg06 0.000000 0.000000 0.000000 0.000000 0.000000 0.000000 10.000000 
Rope4_Seg07 0.000000 0.000000 0.000000 0.000000 0.000000 0.000000 10.000000 
Rope4_Seg08 0.000000 0.000000 0.000000 0.000000 0.000000 0.000000 10.000000 
Rope4_Seg09 0.000000 0.000000 0.000000 0.000000 0.000000 0.000000 10.000000 
L_rear_hand01 0.000000 0.000000 0.000000 0.000000 0.000000 0.000000 10.000000 
L_rear_hand02 0.000000 0.000000 0.000000 0.000000 0.000000 0.000000 10.000000 
L_rear_hand03 0.000000 0.000000 0.000000 0.000000 0.000000 0.000000 10.000000 
#Beginning of Data. Separated by tabs
#Fr	Tx	Ty	Tz	Rx	Ry	Rz	SF
[MASTER]
26 0.000000 0.000000 0.000000 0.001660 0.001660 0.001660 0.000000
27 0.000000 0.000000 0.000000 0.001660 0.001660 0.001660 0.000000
[root]
26 -36.623486 9.826323 1455.023682 -91.740158 13.400836 -90.225014 1455.517700
27 -37.550861 10.995632 1459.373535 -91.740150 13.400836 -90.225014 1459.897949
[chest]
26 -84.512650 -34.090519 0.000000 -2.117274 0.462005 -179.268204 91.129311
27 -84.512650 -34.090519 0.000000 -2.117274 0.462005 -179.268204 91.129311
[L_mid_tent01]
26 27.299511 22.177458 -249.918259 -6.959594 22.809958 56.557297 252.381134
27 27.299511 22.177458 -249.918259 -6.815493 21.396927 56.655415 252.381134
[R_mid_tent01]
26 23.228794 24.509907 226.238495 -175.411331 -18.207619 54.952808 228.744751
27 23.228794 24.509907 226.238495 -175.295471 -16.251234 55.264355 228.744751
[spine01]
26 -0.361383 -0.195265 0.000000 -0.000001 -0.000007 22.052340 0.410763
27 -0.361383 -0.195265 0.000000 -0.000001 -0.000007 22.052340 0.410763
[Bip01_Neck]
26 165.484543 71.581718 0.000119 175.896118 1.177290 24.871183 180.302734
27 165.484543 71.581718 0.000119 175.896118 1.177290 24.871183 180.302734
[L_humerus]
26 -13.983130 -135.272980 -120.471481 175.474304 58.687801 -118.474754 181.680161
27 -13.983130 -135.272980 -120.471481 175.474304 58.687801 -118.474754 181.680161
[R_humerus]
26 -13.983309 -135.273102 125.287651 174.588181 -51.786880 -99.934280 184.909012
27 -13.983309 -135.273102 125.287651 174.588181 -51.786880 -99.934280 184.909012
[weapon_bone]
26 235.964890 -300.705902 0.000000 0.000000 -89.951546 -128.212341 382.234833
27 235.964890 -300.705902 0.000000 0.000000 -89.951546 -128.212341 382.234833
[Bip01_Head]
26 163.817291 272.852325 22.822264 1.693472 4.424703 -42.711670 319.069519
27 163.817291 272.852325 22.822264 1.693473 4.424704 -42.711670 319.069519
[eye_left_bone]
26 -24.626970 125.451866 -64.772606 0.000000 -90.000000 -99.840431 143.318359
27 -24.626970 125.451866 -64.772606 0.000000 -90.000000 -99.840431 143.318359
[eye_right_bone]
26 -24.626970 125.451866 64.327362 0.000000 -89.965736 80.156380 143.117676
27 -24.626970 125.451866 64.327362 0.000000 -89.965736 80.156380 143.117676
[L_forearm]
26 322.776093 0.000000 -0.000119 0.000442 -0.002305 -111.718391 322.776093
27 322.776093 0.000000 -0.000119 0.000442 -0.002305 -111.718391 322.776093
[L_front_hand]
26 241.149185 -0.042021 -3.300071 -179.659958 -2.242151 -0.019832 241.171753
27 241.149185 -0.042021 -3.300071 -179.659958 -2.242151 -0.019832 241.171753
[L_weapon_bone]
26 156.183838 0.000000 0.000000 0.000014 0.000007 0.000001 156.183838
27 156.183838 0.000000 0.000000 0.000014 0.000007 0.000001 156.183838
[L_front_hand01_01]
26 86.095154 20.947098 -0.655860 -0.366594 -0.477154 75.385574 88.609184
27 86.095154 20.947098 -0.655860 -0.366594 -0.477154 75.385574 88.609184
[L_front_hand02_01]
26 86.935165 -11.437475 24.513514 154.399796 -59.883835 -61.369587 91.046425
27 86.935165 -11.437475 24.513514 154.399796 -59.883835 -61.369587 91.046425
[L_front_hand03_01]
26 86.637497 -14.123976 -20.424902 -153.913879 58.118130 -62.702892 90.126129
27 86.637497 -14.123976 -20.424902 -153.913849 58.118130 -62.702866 90.126129
[L_front_hand01_02]
26 71.020905 -0.000179 0.000030 0.000334 -0.002323 -106.379684 71.020905
27 71.020905 -0.000179 0.000030 0.000334 -0.002323 -106.379684 71.020905
[L_front_hand02_02]
26 71.020927 -0.000119 0.000060 0.000334 -0.002323 -106.379684 71.020927
27 71.020927 -0.000119 0.000060 0.000334 -0.002323 -106.379684 71.020927
[L_front_hand03_02]
26 71.020905 -0.000060 0.000060 0.000334 -0.002323 -106.379684 71.020905
27 71.020905 -0.000060 0.000060 0.000334 -0.002323 -106.379684 71.020905
[R_forearm]
26 322.776428 -0.000060 0.000030 0.211305 0.032976 -99.623016 322.776428
27 322.776428 -0.000060 0.000030 0.211305 0.032976 -99.623016 322.776428
[R_front_hand]
26 238.847015 -0.006795 2.210259 -0.270529 1.703932 2.322530 238.857239
27 238.847015 -0.006795 2.210259 -0.270529 1.703932 2.322530 238.857239
[R_weapon_bone]
26 155.664093 0.002503 -0.000030 0.003487 0.001180 -90.988930 155.664078
27 155.664093 0.002503 -0.000030 0.003487 0.001180 -90.988930 155.664078
[R_front_hand01_01]
26 87.624611 14.231146 22.918642 -154.633484 -59.950619 61.746037 91.683487
27 87.624611 14.231146 22.918642 -154.633499 -59.950619 61.746044 91.683487
[R_front_hand02_01]
26 89.356956 14.367283 -19.491137 154.602661 58.302849 63.744389 92.579636
27 89.356956 14.367283 -19.491137 154.602661 58.302849 63.744389 92.579636
[R_front_hand03_01]
26 87.286232 -22.307278 -0.143439 0.162155 -0.423168 -75.767921 90.091743
27 87.286232 -22.307278 -0.143439 0.162155 -0.423168 -75.767906 90.091743
[R_front_hand01_02]
26 71.020905 0.000060 0.000119 0.002323 -0.000334 106.381714 71.020905
27 71.020905 0.000060 0.000119 0.002323 -0.000334 106.381714 71.020905
[R_front_hand02_02]
26 71.020844 -0.000030 -0.000119 0.002323 -0.000334 106.381714 71.020836
27 71.020844 -0.000030 -0.000119 0.002323 -0.000334 106.381714 71.020836
[R_front_hand03_02]
26 71.020905 0.000000 0.000030 0.002323 -0.000334 106.381714 71.020905
27 71.020905 0.000000 0.000030 0.002323 -0.000334 106.381714 71.020905
[null_rope01_connect]
26 328.732483 0.000000 -0.000238 -177.981659 -64.525177 -163.333618 328.732483
27 328.732483 0.000000 -0.000238 -178.731583 -65.906601 -162.575577 328.732483
[Rope1_Seg01]
26 0.000000 0.000000 0.000000 -143.715683 49.300159 -125.643951 0.000000
27 0.000000 0.000000 0.000000 -144.111557 49.520287 -125.879158 0.000000
[Rope1_Seg02]
26 139.999863 -0.000179 0.000000 29.238342 -5.476925 -11.654197 139.999863
27 139.999863 -0.000179 0.000000 28.064596 -5.154625 -11.388385 139.999863
[Rope1_Seg03]
26 139.999924 0.000060 -0.000060 22.474522 -8.391375 -6.275060 139.999924
27 139.999924 0.000060 -0.000060 21.971603 -7.851253 -6.267467 139.999924
[Rope1_Seg04]
26 139.999924 -0.000060 -0.000119 13.107226 -7.097559 -2.834851 139.999924
27 139.999924 -0.000060 -0.000119 12.357321 -6.427928 -2.648091 139.999924
[Rope1_Seg05]
26 139.999832 0.000119 -0.000060 6.186870 -5.650618 0.251440 139.999832
27 139.999832 0.000119 -0.000060 6.836287 -5.595198 -0.149261 139.999832
[Rope1_Seg06]
26 139.999954 0.000119 -0.000060 3.206314 -5.822507 2.543705 139.999954
27 139.999954 0.000119 -0.000060 4.793155 -6.555157 1.745076 139.999954
[Rope1_Seg07]
26 139.999985 0.000060 0.000000 1.809729 -6.502778 4.210085 139.999985
27 139.999985 0.000060 0.000000 3.433915 -7.706379 3.311684 139.999985
[Rope1_Seg09]
26 121.602913 0.000119 -0.000089 -89.793175 -1.359789 0.847147 121.602913
27 121.602913 0.000119 -0.000089 -89.793175 -1.359789 0.847147 121.602913
[L_mid_hand01]
26 103.859421 1.038730 8.195221 106.855484 -31.239275 -9.461397 104.187431
27 103.859421 1.038730 8.195221 106.855484 -31.239275 -9.461397 104.187431
[L_mid_hand02]
26 105.572853 -4.139662 -10.864139 -142.331345 25.752670 -28.774628 106.211075
27 105.572853 -4.139662 -10.864139 -142.331345 25.752670 -28.774628 106.211075
[L_mid_hand03]
26 104.641464 17.579376 -3.913581 -16.122810 9.734291 34.223598 106.179977
27 104.641464 17.579376 -3.913581 -16.122810 9.734291 34.223598 106.179977
[null_rope02_connect]
26 328.732849 0.000179 -0.000119 -171.496765 72.891975 -12.336309 328.732849
27 328.732849 0.000179 -0.000119 -173.880554 74.768555 -14.491796 328.732849
[Rope2_Seg01]
26 0.000000 0.000000 0.000000 177.594940 53.462082 -59.095993 0.000000
27 0.000000 0.000000 0.000000 174.649857 53.830418 -61.229183 0.000000
[Rope2_Seg02]
26 139.999741 -0.000060 -0.000119 -8.556956 7.113212 2.957631 139.999756
27 139.999741 -0.000060 -0.000119 -6.874580 7.478727 1.562811 139.999756
[Rope2_Seg03]
26 140.000107 0.000030 0.000000 -11.323376 10.561366 0.788440 140.000107
27 140.000107 0.000030 0.000000 -7.274723 10.676570 -1.584840 140.000107
[Rope2_Seg04]
26 139.999802 0.000000 -0.000060 -24.366423 7.444571 7.054725 139.999802
27 139.999802 0.000000 -0.000060 -22.523258 8.421119 3.738839 139.999802
[Rope2_Seg05]
26 139.999985 -0.000060 0.000119 -11.412057 -25.874376 20.755344 139.999985
27 139.999985 -0.000060 0.000119 -18.679699 -21.489456 24.689175 139.999985
[Rope2_Seg06]
26 139.999893 -0.000030 -0.000119 -2.131481 -14.833697 8.952063 139.999893
27 139.999893 -0.000030 -0.000119 -3.245252 -15.888543 10.694233 139.999893
[Rope2_Seg07]
26 139.999893 0.000060 -0.000060 -0.590673 -6.661674 4.213288 139.999893
27 139.999893 0.000060 -0.000060 -0.839010 -7.095832 4.836952 139.999893
[Rope2_Seg09]
26 121.338966 0.000089 -0.000060 33.793236 -1.359788 -0.847141 121.338966
27 121.338966 0.000089 -0.000060 33.793236 -1.359788 -0.847141 121.338966
[R_mid_hand01]
26 104.680779 11.144459 -10.335981 -41.523792 25.424656 28.595957 105.778534
27 104.680779 11.144459 -10.335981 -41.523792 25.424656 28.595957 105.778534
[R_mid_hand02]
26 104.070427 2.443552 8.231699 72.847389 -32.746803 10.013901 104.424065
27 104.070427 2.443552 8.231699 72.847389 -32.746803 10.013901 104.424065
[R_mid_hand03]
26 106.028137 -11.221827 -5.996406 -167.901306 10.259192 -37.009720 106.788818
27 106.028137 -11.221827 -5.996406 -167.901306 10.259192 -37.009720 106.788818
[spine02]
26 129.756927 0.001550 0.000119 0.360061 -4.044797 -12.915058 129.756927
27 129.756927 0.001550 0.000119 0.360061 -4.044797 -12.915058 129.756927
[spine03]
26 78.613846 0.087372 -4.898873 1.896495 3.831288 16.473045 78.766380
27 78.613846 0.087372 -4.898873 1.896495 3.831288 16.473045 78.766380
[pelvis]
26 169.435242 0.051022 0.000000 -0.060465 -0.180225 14.087930 169.435257
27 169.435242 0.051022 0.000000 -0.060465 -0.180225 14.087930 169.435257
[null_rope03_connect]
26 -1.257226 -2.466202 137.391083 -159.503860 -89.311867 -163.586563 137.418976
27 -1.257226 -2.466202 137.391083 -159.503860 -89.311867 -163.586563 137.418976
[null_rope04_connect]
26 -1.259640 -2.480268 -137.844437 -159.503860 -89.311867 -163.586563 137.872513
27 -1.259640 -2.480268 -137.844437 -159.503860 -89.311867 -163.586563 137.872513
[Rope3_Seg01]
26 0.000000 0.000000 0.000000 -142.098343 21.255957 -111.580284 0.000000
27 0.000000 0.000000 0.000000 -140.706665 19.529564 -111.167595 0.000000
[Rope3_Seg02]
26 139.999924 -0.000119 0.000060 -1.841738 -8.070177 -5.458982 139.999924
27 139.999924 -0.000119 0.000060 -2.431066 -8.562184 -4.500468 139.999924
[Rope3_Seg03]
26 139.999924 -0.000119 0.000119 -1.027151 -10.696871 -7.771924 139.999924
27 139.999924 -0.000119 0.000119 -1.589407 -11.147271 -6.436616 139.999924
[Rope3_Seg04]
26 139.999924 0.000119 0.000000 1.146494 -17.214243 -12.566618 139.999924
27 139.999924 0.000119 0.000000 0.297738 -17.117760 -9.847834 139.999924
[Rope3_Seg05]
26 139.999924 -0.000238 0.000060 0.073539 -0.891953 -2.877692 139.999924
27 139.999924 -0.000238 0.000060 0.146827 -1.512931 -3.497725 139.999924
[Rope3_Seg06]
26 139.999893 -0.000119 -0.000060 0.531621 10.677620 4.339133 139.999893
27 139.999893 -0.000119 -0.000060 0.284423 8.895219 1.402893 139.999893
[Rope3_Seg07]
26 139.999771 0.000060 -0.000119 0.745752 4.269632 0.974782 139.999771
27 139.999771 0.000060 -0.000119 0.572797 3.105392 -0.467670 139.999771
[Rope3_Seg08]
26 139.999985 -0.000060 0.000000 0.765981 2.723610 0.519539 139.999985
27 139.999985 -0.000060 0.000000 0.613181 1.952527 -0.398448 139.999985
[Rope3_Seg09]
26 90.185997 -0.000179 -0.000060 89.793228 -1.359877 -0.847183 90.185997
27 90.185997 -0.000179 -0.000060 89.793228 -1.359877 -0.847183 90.185997
[R_rear_hand01]
26 103.366196 -6.073594 -10.757982 -161.551193 16.666374 -30.088671 104.101845
27 103.366196 -6.073594 -10.757982 -161.551193 16.666374 -30.088671 104.101845
[R_rear_hand02]
26 100.509819 12.039542 -7.992327 -34.280552 19.289745 28.875523 101.543350
27 100.509819 12.039542 -7.992327 -34.280552 19.289745 28.875523 101.543350
[R_rear_hand03]
26 101.539970 5.215704 5.435467 83.366440 -30.933914 7.284830 101.819031
27 101.539970 5.215704 5.435467 83.366440 -30.933914 7.284830 101.819031
[Rope4_Seg01]
26 0.000010 0.000038 -0.000114 38.291492 25.047014 -124.442513 0.000121
27 0.000010 0.000038 -0.000114 37.946026 26.058695 -124.726074 0.000121
[Rope4_Seg02]
26 139.999985 0.000060 0.000119 0.884736 7.781964 7.204925 139.999985
27 139.999985 0.000060 0.000119 0.871101 6.968797 7.095221 139.999985
[Rope4_Seg03]
26 139.999924 0.000000 -0.000238 0.801903 12.171622 11.266191 139.999924
27 139.999924 0.000000 -0.000238 0.714298 10.945789 11.102157 139.999924
[Rope4_Seg04]
26 139.999985 0.000000 0.000119 -1.070948 22.288074 22.307066 139.999985
27 139.999985 0.000000 0.000119 -1.317912 20.594193 22.430639 139.999985
[Rope4_Seg05]
26 139.999802 -0.000060 -0.000119 -1.958638 4.095667 4.318006 139.999802
27 139.999802 -0.000060 -0.000119 -2.561459 4.819448 5.634805 139.999802
[Rope4_Seg06]
26 139.999924 0.000000 0.000060 6.050057 -8.929032 -11.446483 139.999924
27 139.999924 0.000000 0.000060 5.380504 -6.824556 -9.848449 139.999924
[Rope4_Seg07]
26 139.999802 0.000000 0.000000 1.337666 -3.307101 -3.580352 139.999802
27 139.999802 0.000000 0.000000 1.114823 -2.012040 -2.531038 139.999802
[Rope4_Seg08]
26 139.999924 0.000000 0.000119 -0.923774 -1.794261 -1.873505 139.999924
27 139.999924 0.000000 0.000119 -0.995128 -1.068263 -1.314648 139.999924
[Rope4_Seg09]
26 90.185791 0.000060 0.000060 -135.617828 2.228885 0.850567 90.185791
27 90.185791 0.000060 0.000060 -135.617828 2.228885 0.850567 90.185791
[L_rear_hand01]
26 101.696655 -8.392275 -7.654577 -34.454281 -18.946800 151.655121 102.329041
27 101.696655 -8.392275 -7.654577 -34.454281 -18.946800 151.655121 102.329041
[L_rear_hand02]
26 102.726799 -1.568258 5.773216 83.407906 30.330435 172.796509 102.900848
27 102.726799 -1.568258 5.773216 83.407906 30.330435 172.796509 102.900848
[L_rear_hand03]
26 104.552910 9.721220 -10.420293 -161.379868 -16.473232 -150.512238 105.519653
27 104.552910 9.721220 -10.420293 -161.379868 -16.473232 -150.512238 105.519653
